<svg width="24" height="24" viewBox="0 0 24 24" fill="none" xmlns="http://www.w3.org/2000/svg">
<path d="M20 15.2499C19.3793 15.2531 18.7749 15.4487 18.27 15.8099L15.82 14.3599C15.9356 14.0011 15.9963 13.6268 16 13.2499C15.9971 12.3653 15.7011 11.5067 15.1583 10.8082C14.6155 10.1098 13.8565 9.61102 13 9.38988V7.06988C13.6672 6.83399 14.2296 6.36981 14.5876 5.7594C14.9457 5.14899 15.0765 4.43164 14.9568 3.73415C14.8371 3.03665 14.4747 2.40392 13.9337 1.94778C13.3926 1.49163 12.7077 1.24146 12 1.24146C11.2923 1.24146 10.6074 1.49163 10.0663 1.94778C9.52527 2.40392 9.16288 3.03665 9.04321 3.73415C8.92353 4.43164 9.05429 5.14899 9.41237 5.7594C9.77045 6.36981 10.3328 6.83399 11 7.06988V9.38988C10.1435 9.61102 9.38451 10.1098 8.84169 10.8082C8.29887 11.5067 8.00287 12.3653 8 13.2499C8.00372 13.6268 8.0644 14.0011 8.18 14.3599L5.73 15.8099C5.22516 15.4487 4.62072 15.2531 4 15.2499C3.40666 15.2499 2.82664 15.4258 2.33329 15.7555C1.83994 16.0851 1.45543 16.5537 1.22836 17.1018C1.0013 17.65 0.94189 18.2532 1.05765 18.8352C1.1734 19.4171 1.45912 19.9516 1.87868 20.3712C2.29824 20.7908 2.83279 21.0765 3.41473 21.1922C3.99667 21.308 4.59987 21.2486 5.14805 21.0215C5.69623 20.7945 6.16477 20.4099 6.49441 19.9166C6.82405 19.4232 7 18.8432 7 18.2499C6.9963 17.979 6.95594 17.7099 6.88 17.4499L9.18 16.0799C9.92945 16.8249 10.9433 17.2431 12 17.2431C13.0567 17.2431 14.0706 16.8249 14.82 16.0799L17.12 17.4499C16.9524 18.0555 16.9793 18.6984 17.1967 19.288C17.4141 19.8775 17.8112 20.3839 18.3319 20.7357C18.8525 21.0874 19.4705 21.2669 20.0986 21.2486C20.7267 21.2303 21.3332 21.0153 21.8325 20.6339C22.3318 20.2524 22.6988 19.7238 22.8816 19.1227C23.0644 18.5215 23.0538 17.8781 22.8514 17.2832C22.6489 16.6884 22.2648 16.1721 21.7532 15.8073C21.2416 15.4425 20.6284 15.2475 20 15.2499V15.2499ZM4 19.2499C3.80222 19.2499 3.60888 19.1912 3.44443 19.0814C3.27998 18.9715 3.15181 18.8153 3.07612 18.6326C3.00043 18.4498 2.98063 18.2488 3.01922 18.0548C3.0578 17.8608 3.15304 17.6826 3.29289 17.5428C3.43275 17.4029 3.61093 17.3077 3.80491 17.2691C3.99889 17.2305 4.19996 17.2503 4.38269 17.326C4.56541 17.4017 4.72159 17.5299 4.83147 17.6943C4.94135 17.8588 5 18.0521 5 18.2499C5 18.5151 4.89464 18.7695 4.70711 18.957C4.51957 19.1445 4.26522 19.2499 4 19.2499ZM12 3.24988C12.1978 3.24988 12.3911 3.30853 12.5556 3.41841C12.72 3.52829 12.8482 3.68447 12.9239 3.8672C12.9996 4.04993 13.0194 4.25099 12.9808 4.44497C12.9422 4.63895 12.847 4.81714 12.7071 4.95699C12.5673 5.09684 12.3891 5.19208 12.1951 5.23067C12.0011 5.26925 11.8 5.24945 11.6173 5.17376C11.4346 5.09807 11.2784 4.9699 11.1685 4.80545C11.0587 4.641 11 4.44766 11 4.24988C11 3.98467 11.1054 3.73031 11.2929 3.54278C11.4804 3.35524 11.7348 3.24988 12 3.24988V3.24988ZM12 15.2499C11.6044 15.2499 11.2178 15.1326 10.8889 14.9128C10.56 14.6931 10.3036 14.3807 10.1522 14.0153C10.0009 13.6498 9.96126 13.2477 10.0384 12.8597C10.1156 12.4717 10.3061 12.1154 10.5858 11.8357C10.8655 11.556 11.2219 11.3655 11.6098 11.2883C11.9978 11.2111 12.3999 11.2507 12.7654 11.4021C13.1308 11.5535 13.4432 11.8098 13.6629 12.1387C13.8827 12.4676 14 12.8543 14 13.2499C14 13.7803 13.7893 14.289 13.4142 14.6641C13.0391 15.0392 12.5304 15.2499 12 15.2499ZM20 19.2499C19.8022 19.2499 19.6089 19.1912 19.4444 19.0814C19.28 18.9715 19.1518 18.8153 19.0761 18.6326C19.0004 18.4498 18.9806 18.2488 19.0192 18.0548C19.0578 17.8608 19.153 17.6826 19.2929 17.5428C19.4327 17.4029 19.6109 17.3077 19.8049 17.2691C19.9989 17.2305 20.2 17.2503 20.3827 17.326C20.5654 17.4017 20.7216 17.5299 20.8315 17.6943C20.9414 17.8588 21 18.0521 21 18.2499C21 18.5151 20.8946 18.7695 20.7071 18.957C20.5196 19.1445 20.2652 19.2499 20 19.2499Z" fill="white"/>
</svg>
