<svg width="25" height="24" viewBox="0 0 25 24" fill="none" xmlns="http://www.w3.org/2000/svg">
<path d="M15.3335 1.99993C13.6965 2.00125 12.1117 2.57625 10.8548 3.62494C9.5978 4.67363 8.74812 6.12968 8.45347 7.73993C7.59189 8.20475 6.85714 8.87332 6.31331 9.68733C5.76948 10.5013 5.43308 11.436 5.33347 12.4099C4.58921 12.7373 3.93602 13.2412 3.43051 13.8781C2.925 14.5149 2.58242 15.2654 2.43246 16.0645C2.2825 16.8637 2.32968 17.6873 2.56992 18.4641C2.81017 19.2409 3.23621 19.9473 3.81115 20.5222C4.38608 21.0972 5.09254 21.5232 5.86932 21.7635C6.64609 22.0037 7.46973 22.0509 8.26886 21.9009C9.06799 21.751 9.81849 21.4084 10.4553 20.9029C11.0921 20.3974 11.5961 19.7442 11.9235 18.9999C12.8945 18.9034 13.8273 18.5716 14.6411 18.0331C15.4548 17.4947 16.125 16.7659 16.5935 15.9099C18.3444 15.6291 19.9234 14.6941 21.0117 13.294C22.0999 11.8938 22.6162 10.1329 22.4562 8.3668C22.2962 6.60073 21.4719 4.96119 20.1498 3.77939C18.8277 2.59759 17.1064 1.96161 15.3335 1.99993ZM10.3335 17.4299C10.3335 17.5299 10.3335 17.6299 10.2635 17.7399C10.1343 18.2546 9.87092 18.7259 9.50019 19.1055C9.12947 19.4852 8.66466 19.7598 8.15319 19.9012C7.64173 20.0426 7.1019 20.0458 6.58878 19.9105C6.07566 19.7752 5.60761 19.5063 5.23238 19.131C4.85714 18.7558 4.58815 18.2877 4.45285 17.7746C4.31755 17.2615 4.32077 16.7217 4.46219 16.2102C4.60361 15.6987 4.87817 15.2339 5.25785 14.8632C5.63754 14.4925 6.10877 14.2291 6.62347 14.0999L6.90347 13.9999C7.37304 13.9122 7.85693 13.9402 8.31326 14.0815C8.76958 14.2228 9.18459 14.4732 9.52238 14.811C9.86017 15.1488 10.1106 15.5638 10.2519 16.0201C10.3932 16.4765 10.4212 16.9603 10.3335 17.4299ZM15.3335 13.7599C15.3203 13.8241 15.3036 13.8876 15.2835 13.9499C15.2405 14.134 15.1837 14.3145 15.1135 14.4899C14.8832 15.0737 14.5189 15.5952 14.0498 16.0121C13.5808 16.429 13.0202 16.7297 12.4135 16.8899C12.4135 16.7099 12.4135 16.5399 12.3535 16.3599C12.2935 16.1799 12.3535 16.0899 12.3535 15.9599C12.3535 15.8299 12.2335 15.5799 12.1735 15.3899C12.1135 15.1999 12.1035 15.1499 12.0535 15.0299C11.9673 14.8394 11.867 14.6556 11.7535 14.4799C11.7535 14.3899 11.6635 14.2899 11.6035 14.1999C11.4256 13.9392 11.2248 13.6949 11.0035 13.4699L10.8035 13.2999C10.6358 13.1458 10.4588 13.0022 10.2735 12.8699C10.1645 12.799 10.0509 12.7356 9.93347 12.6799C9.77341 12.5782 9.60632 12.488 9.43347 12.4099C9.30431 12.3547 9.17043 12.3112 9.03347 12.2799C8.86511 12.2116 8.69112 12.1581 8.51347 12.1199C8.37347 12.1199 8.22347 12.1199 8.07347 12.0599L7.46347 11.9999C7.62265 11.3942 7.92185 10.8343 8.33697 10.3653C8.75209 9.89638 9.27153 9.53145 9.85347 9.29993C10.025 9.2283 10.2023 9.17143 10.3835 9.12993L10.5835 9.07993C10.8301 9.02806 11.0814 9.00125 11.3335 8.99993C12.3943 8.99993 13.4117 9.42135 14.1619 10.1715C14.912 10.9216 15.3335 11.9391 15.3335 12.9999C15.3321 13.2553 15.3053 13.5099 15.2535 13.7599H15.3335ZM17.3335 13.5999C17.3335 13.3999 17.3335 13.1999 17.3335 12.9999C17.3335 11.4086 16.7013 9.8825 15.5761 8.75729C14.4509 7.63207 12.9248 6.99993 11.3335 6.99993C11.1335 6.99993 10.9335 6.99993 10.7335 6.99993C11.0631 6.25848 11.5682 5.60839 12.2052 5.10578C12.8422 4.60317 13.592 4.26314 14.3898 4.11505C15.1876 3.96696 16.0094 4.01525 16.7844 4.25576C17.5593 4.49627 18.2641 4.92178 18.8379 5.49554C19.4116 6.06929 19.8371 6.77407 20.0776 7.54903C20.3181 8.32398 20.3664 9.14582 20.2183 9.94361C20.0703 10.7414 19.7302 11.4912 19.2276 12.1282C18.725 12.7652 18.0749 13.2703 17.3335 13.5999Z" fill="white"/>
</svg>
